<?xml version="1.0" encoding="utf-8"?>
<!-- Generator: Adobe Illustrator 22.0.1, SVG Export Plug-In . SVG Version: 6.00 Build 0)  -->
<svg version="1.1" id="Layer_1" xmlns="http://www.w3.org/2000/svg" xmlns:xlink="http://www.w3.org/1999/xlink" x="0px" y="0px"
	 viewBox="0 0 176 143" style="enable-background:new 0 0 176 143;" xml:space="preserve">
<style type="text/css">
	.st0{enable-background:new    ;}
	.st1{fill:#FFFFFF;}
	.st2{opacity:0.5;enable-background:new    ;}
</style>
<title>Group 5</title>
<desc>Created with Sketch.</desc>
<g id="Bahmni_PersonMgmt">
	<g id="Registration_ErrorMessage" transform="translate(-451.000000, -458.000000)">
		<g id="Group-5" transform="translate(459.000000, 466.000000)">
			<g class="st0">
				<path class="st1" d="M80.6,95.5c2.3,0,4.1,0.7,5.5,2s2.1,3.1,2.1,5.2c0,2.1-0.7,3.8-2.1,5.1s-3.2,2-5.5,2c-2.2,0-4.1-0.7-5.5-2
					c-1.4-1.3-2.1-3-2.1-5.1s0.7-3.8,2.1-5.1C76.5,96.1,78.4,95.5,80.6,95.5z M86.2,88H75l-1.6-47.3h14.4L86.2,88z"/>
			</g>
			<g id="Triangle" class="st2">
				<path class="st1" d="M160,134.5H0c-2.7,0-5.2-1.5-6.6-3.9c-1.3-2.4-1.2-5.3,0.2-7.6l80-127C75-6.2,77.4-7.5,80-7.5
					c2.6,0,5,1.3,6.3,3.5l80,127c1.5,2.3,1.5,5.2,0.2,7.6C165.2,133,162.7,134.5,160,134.5z M13.6,119.5h132.8L80,14.1L13.6,119.5z"
					/>
			</g>
		</g>
	</g>
</g>
</svg>
