<?xml version="1.0" encoding="utf-8"?>
<!-- Generator: Adobe Illustrator 22.0.1, SVG Export Plug-In . SVG Version: 6.00 Build 0)  -->
<svg version="1.1" id="Layer_1" xmlns="http://www.w3.org/2000/svg" xmlns:xlink="http://www.w3.org/1999/xlink" x="0px" y="0px"
	 viewBox="0 0 176 143" style="enable-background:new 0 0 176 143;" xml:space="preserve">
<style type="text/css">
	.st0{opacity:0.5;enable-background:new    ;}
	.st1{fill:#FFFFFF;}
</style>
<title>Group 5</title>
<desc>Created with Sketch.</desc>
<g class="st0">
	<path class="st1" d="M88.6,103.5c2.3,0,4.1,0.7,5.5,2s2.1,3.1,2.1,5.2s-0.7,3.8-2.1,5.1s-3.2,2-5.5,2c-2.2,0-4.1-0.7-5.5-2
		s-2.1-3-2.1-5.1s0.7-3.8,2.1-5.1C84.5,104.1,86.4,103.5,88.6,103.5z M94.2,96H83l-1.6-47.3h14.4L94.2,96z"/>
</g>
<g id="Triangle" class="st0">
	<path class="st1" d="M168,142.5H8c-2.7,0-5.2-1.5-6.6-3.9c-1.3-2.4-1.2-5.3,0.2-7.6l80-127C83,1.8,85.4,0.5,88,0.5s5,1.3,6.3,3.5
		l80,127c1.5,2.3,1.5,5.2,0.2,7.6C173.2,141,170.7,142.5,168,142.5z M21.6,127.5h132.8L88,22.1L21.6,127.5z"/>
</g>
</svg>
