<?xml version="1.0" encoding="UTF-8"?>
<svg width="40px" height="30px" viewBox="0 0 97 70" version="1.1" xmlns="http://www.w3.org/2000/svg" xmlns:xlink="http://www.w3.org/1999/xlink">
    <!-- Generator: Sketch 51.2 (57519) - http://www.bohemiancoding.com/sketch -->
    <title>Fill 1</title>
    <desc>Created with Sketch.</desc>
    <defs></defs>
    <g id="Bahmni_PersonMgmt" stroke="none" stroke-width="1" fill="none" fill-rule="evenodd">
        <g id="Registration_Search-Copy" transform="translate(-210.000000, -618.000000)" fill="#FFFFFF">
            <path d="M271.25,661.75 C259.56875,661.75 236.25,667.6125 236.25,679.25 L236.25,688 L306.25,688 L306.25,679.25 C306.25,667.6125 282.93125,661.75 271.25,661.75 Z M231.875,644.25 L231.875,631.125 L223.125,631.125 L223.125,644.25 L210,644.25 L210,653 L223.125,653 L223.125,666.125 L231.875,666.125 L231.875,653 L245,653 L245,644.25 L231.875,644.25 Z M271.25,653 C280.91875,653 288.75,645.16875 288.75,635.5 C288.75,625.83125 280.91875,618 271.25,618 C261.58125,618 253.75,625.83125 253.75,635.5 C253.75,645.16875 261.58125,653 271.25,653 Z" id="Fill-1"></path>
        </g>
    </g>
</svg>