<?xml version="1.0" encoding="utf-8"?>
<!-- Generator: Adobe Illustrator 22.0.1, SVG Export Plug-In . SVG Version: 6.00 Build 0)  -->
<svg version="1.1" id="Layer_1" xmlns="http://www.w3.org/2000/svg" xmlns:xlink="http://www.w3.org/1999/xlink" x="0px" y="0px"
	 viewBox="0 0 48 48" style="enable-background:new 0 0 48 48;" xml:space="preserve">
<style type="text/css">
	.st0{fill:#FFFFFF;}
</style>
<title>Group 5</title>
<desc>Created with Sketch.</desc>
<path class="st0" d="M47.2,43.8L34.3,30.9c2.5-3.2,4-7.3,4-11.7c0-10.6-8.6-19.1-19.1-19.1C8.7,0.1,0.1,8.7,0.1,19.2
	c0,10.6,8.6,19.1,19.1,19.1c4.4,0,8.5-1.5,11.7-4l12.9,12.9c0.5,0.5,1.1,0.7,1.7,0.7s1.2-0.2,1.7-0.7C48.2,46.3,48.2,44.8,47.2,43.8
	z M4.9,19.2c0-7.9,6.4-14.3,14.3-14.3s14.3,6.4,14.3,14.3c0,7.9-6.4,14.3-14.3,14.3S4.9,27.1,4.9,19.2z"/>
</svg>
